<svg width="60" height="60" viewBox="0 0 60 60" fill="none" xmlns="http://www.w3.org/2000/svg">
<g id="ai-edit-spark--change-edit-modify-pencil-write-writing-artificial-intelligence-ai">
<g id="Union">
<path fill-rule="evenodd" clip-rule="evenodd" d="M48.0787 14.996C47.2221 14.996 46.3741 15.1671 45.5845 15.4992C44.8 15.8292 44.0892 16.3115 43.4929 16.9181L16.7517 43.4798C16.3921 43.8373 16.1708 44.31 16.127 44.8149L15.0124 57.6721C14.9578 58.3025 15.1846 58.9248 15.6322 59.3727C16.0798 59.8201 16.7024 60.0468 17.333 59.992L30.194 58.8777C30.699 58.834 31.1721 58.6128 31.5295 58.2533L58.0978 31.5213L58.1042 31.5149C58.704 30.9186 59.1798 30.2099 59.5052 29.4293C59.8319 28.6459 59.9999 27.8057 59.9999 26.957C59.9999 26.1083 59.8319 25.2681 59.5052 24.4847C59.1803 23.7043 58.704 22.9958 58.1046 22.3996L52.6765 16.9302L52.67 16.924C52.0724 16.3146 51.3595 15.8303 50.5728 15.4992C49.7832 15.1671 48.9352 14.996 48.0787 14.996Z" fill="#FA6F35"/>
<path fill-rule="evenodd" clip-rule="evenodd" d="M48.0787 14.996C47.2221 14.996 46.3741 15.1671 45.5845 15.4992C44.8 15.8292 44.0892 16.3115 43.4929 16.9181L16.7517 43.4798C16.3921 43.8373 16.1708 44.31 16.127 44.8149L15.0124 57.6721C14.9578 58.3025 15.1846 58.9248 15.6322 59.3727C16.0798 59.8201 16.7024 60.0468 17.333 59.992L30.194 58.8777C30.699 58.834 31.1721 58.6128 31.5295 58.2533L58.0978 31.5213L58.1042 31.5149C58.704 30.9186 59.1798 30.2099 59.5052 29.4293C59.8319 28.6459 59.9999 27.8057 59.9999 26.957C59.9999 26.1083 59.8319 25.2681 59.5052 24.4847C59.1803 23.7043 58.704 22.9958 58.1046 22.3996L52.6765 16.9302L52.67 16.924C52.0724 16.3146 51.3595 15.8303 50.5728 15.4992C49.7832 15.1671 48.9352 14.996 48.0787 14.996Z" fill="white" fill-opacity="0.35"/>
</g>
<path id="Union_2" fill-rule="evenodd" clip-rule="evenodd" d="M19.2016 2.77404C18.354 -0.941289 13.052 -0.91812 12.2369 2.80447L12.203 2.95951L12.1356 3.26614C11.124 7.79508 7.48082 11.2705 2.90443 12.0664C-0.968158 12.7399 -0.968128 18.2976 2.90443 18.9711C7.49681 19.7698 11.1494 23.2667 12.1462 27.8189L12.2369 28.233C13.052 31.9556 18.354 31.9788 19.2016 28.2634L19.3118 27.7808C20.3464 23.2458 24.0035 19.7752 28.5874 18.9779C32.4676 18.3031 32.4676 12.7344 28.5874 12.0596C24.0278 11.2665 20.3852 7.82838 19.3284 3.32878C19.2995 3.20558 19.2726 3.08695 19.2437 2.95939L19.2016 2.77404Z" fill="#FA6F35"/>
</g>
</svg>
