<svg width="60" height="60" viewBox="0 0 60 60" fill="none" xmlns="http://www.w3.org/2000/svg">
<g id="browser-add--app-code-apps-add-window-plus" clip-path="url(#clip0_436_175)">
<g id="browser-add--app-code-apps-add-window-plus_2">
<g id="Union">
<path fill-rule="evenodd" clip-rule="evenodd" d="M7.50249 0.197144C3.46819 0.197144 0.197754 3.46758 0.197754 7.50187V52.4968C0.197754 56.531 3.46819 59.8014 7.50249 59.8014H52.4974C56.5316 59.8014 59.802 56.531 59.802 52.4968V7.50187C59.802 3.46758 56.5316 0.197144 52.4974 0.197144H7.50249Z" fill="#84A0E5"/>
<path fill-rule="evenodd" clip-rule="evenodd" d="M7.50249 0.197144C3.46819 0.197144 0.197754 3.46758 0.197754 7.50187V52.4968C0.197754 56.531 3.46819 59.8014 7.50249 59.8014H52.4974C56.5316 59.8014 59.802 56.531 59.802 52.4968V7.50187C59.802 3.46758 56.5316 0.197144 52.4974 0.197144H7.50249Z" fill="white" fill-opacity="0.35"/>
</g>
<path id="Union_2" d="M7.50249 0.197144C3.46819 0.197144 0.197754 3.46758 0.197754 7.50187V14.9991H59.802V7.50187C59.802 3.46758 56.5316 0.197144 52.4974 0.197144H7.50249Z" fill="#84A0E5"/>
<path id="Union_3" fill-rule="evenodd" clip-rule="evenodd" d="M33.2141 26.6857C33.2141 24.9105 31.775 23.4714 29.9999 23.4714C28.2247 23.4714 26.7856 24.9105 26.7856 26.6857V34.1857H19.2856C17.5104 34.1857 16.0713 35.6248 16.0713 37.4C16.0713 39.1752 17.5104 40.6143 19.2856 40.6143H26.7856V48.1142C26.7856 49.8893 28.2247 51.3284 29.9999 51.3284C31.775 51.3284 33.2141 49.8893 33.2141 48.1142V40.6143H40.7141C42.4893 40.6143 43.9284 39.1752 43.9284 37.4C43.9284 35.6248 42.4893 34.1857 40.7141 34.1857H33.2141V26.6857Z" fill="#84A0E5"/>
</g>
</g>
<defs>
<clipPath id="clip0_436_175">
<rect width="60" height="60" fill="white"/>
</clipPath>
</defs>
</svg>
