<svg width="60" height="60" viewBox="0 0 60 60" fill="none" xmlns="http://www.w3.org/2000/svg">
<g id="browser-website-1--app-code-apps-window-website-web" clip-path="url(#clip0_436_214)">
<g id="browser-website-1--app-code-apps-window-website-web_2">
<g id="Union">
<path fill-rule="evenodd" clip-rule="evenodd" d="M7.50249 0.197144C3.46819 0.197144 0.197754 3.46758 0.197754 7.50188V52.4968C0.197754 56.531 3.46819 59.8014 7.50249 59.8014H52.4974C56.5316 59.8014 59.802 56.531 59.802 52.4968V7.50188C59.802 3.46758 56.5316 0.197144 52.4974 0.197144H7.50249Z" fill="#319CE9"/>
<path fill-rule="evenodd" clip-rule="evenodd" d="M7.50249 0.197144C3.46819 0.197144 0.197754 3.46758 0.197754 7.50188V52.4968C0.197754 56.531 3.46819 59.8014 7.50249 59.8014H52.4974C56.5316 59.8014 59.802 56.531 59.802 52.4968V7.50188C59.802 3.46758 56.5316 0.197144 52.4974 0.197144H7.50249Z" fill="white" fill-opacity="0.35"/>
</g>
<path id="Union_2" d="M7.50249 0.197144C3.46819 0.197144 0.197754 3.46758 0.197754 7.50187V14.9991H59.802V7.50187C59.802 3.46758 56.5316 0.197144 52.4974 0.197144H7.50249Z" fill="#319CE9"/>
</g>
<path id="Vector (Stroke)" fill-rule="evenodd" clip-rule="evenodd" d="M4 30C4 27.7909 5.6136 26 7.60416 26H23.3958C25.3863 26 27 27.7909 27 30C27 32.2091 25.3863 34 23.3958 34H7.60416C5.6136 34 4 32.2091 4 30Z" fill="#319CE9"/>
<path id="Vector (Stroke)_2" fill-rule="evenodd" clip-rule="evenodd" d="M4 43C4 40.7909 5.6136 39 7.60416 39H23.3958C25.3863 39 27 40.7909 27 43C27 45.2091 25.3863 47 23.3958 47H7.60416C5.6136 47 4 45.2091 4 43Z" fill="#319CE9"/>
<path id="Vector (Stroke)_3" fill-rule="evenodd" clip-rule="evenodd" d="M33 30C33 27.7909 34.6136 26 36.6042 26H52.3958C54.3863 26 56 27.7909 56 30C56 32.2091 54.3863 34 52.3958 34H36.6042C34.6136 34 33 32.2091 33 30Z" fill="#319CE9"/>
<path id="Vector (Stroke)_4" fill-rule="evenodd" clip-rule="evenodd" d="M33 43C33 40.7909 34.6136 39 36.6042 39H52.3958C54.3863 39 56 40.7909 56 43C56 45.2091 54.3863 47 52.3958 47H36.6042C34.6136 47 33 45.2091 33 43Z" fill="#319CE9"/>
</g>
<defs>
<clipPath id="clip0_436_214">
<rect width="60" height="60" fill="white"/>
</clipPath>
</defs>
</svg>
